<mxfile host="app.diagrams.net" modified="2022-10-13T10:13:22.244Z" agent="5.0 (Windows NT 10.0; Win64; x64) AppleWebKit/537.36 (KHTML, like Gecko) Chrome/105.0.0.0 Safari/537.36 Edg/105.0.1343.53" etag="hJTpGrOCA5ckzJkfTWaO" version="20.3.2" type="github">
  <diagram id="C5RBs43oDa-KdzZeNtuy" name="Page-1">
    <mxGraphModel dx="1549" dy="867" grid="0" gridSize="10" guides="1" tooltips="1" connect="1" arrows="1" fold="1" page="1" pageScale="1" pageWidth="827" pageHeight="1169" math="0" shadow="0">
      <root>
        <mxCell id="WIyWlLk6GJQsqaUBKTNV-0" />
        <mxCell id="WIyWlLk6GJQsqaUBKTNV-1" parent="WIyWlLk6GJQsqaUBKTNV-0" />
        <mxCell id="zuwoEJKR0GoZniBnDny_-30" style="edgeStyle=orthogonalEdgeStyle;rounded=0;orthogonalLoop=1;jettySize=auto;html=1;exitX=0.5;exitY=1;exitDx=0;exitDy=0;entryX=0.5;entryY=0;entryDx=0;entryDy=0;fontSize=14;" edge="1" parent="WIyWlLk6GJQsqaUBKTNV-1" source="zuwoEJKR0GoZniBnDny_-1" target="zuwoEJKR0GoZniBnDny_-4">
          <mxGeometry relative="1" as="geometry" />
        </mxCell>
        <mxCell id="zuwoEJKR0GoZniBnDny_-1" value="STEP1：构造2分类训练样本" style="rounded=0;whiteSpace=wrap;html=1;fontSize=14;" vertex="1" parent="WIyWlLk6GJQsqaUBKTNV-1">
          <mxGeometry x="183.63" y="149" width="207.75" height="41" as="geometry" />
        </mxCell>
        <mxCell id="zuwoEJKR0GoZniBnDny_-39" style="edgeStyle=orthogonalEdgeStyle;rounded=0;orthogonalLoop=1;jettySize=auto;html=1;exitX=0.5;exitY=1;exitDx=0;exitDy=0;entryX=0.5;entryY=0;entryDx=0;entryDy=0;fontSize=14;" edge="1" parent="WIyWlLk6GJQsqaUBKTNV-1" source="zuwoEJKR0GoZniBnDny_-2" target="zuwoEJKR0GoZniBnDny_-3">
          <mxGeometry relative="1" as="geometry" />
        </mxCell>
        <mxCell id="zuwoEJKR0GoZniBnDny_-2" value="训练2分类器" style="rounded=0;whiteSpace=wrap;html=1;fontSize=14;" vertex="1" parent="WIyWlLk6GJQsqaUBKTNV-1">
          <mxGeometry x="197.25" y="460" width="180.5" height="41" as="geometry" />
        </mxCell>
        <mxCell id="zuwoEJKR0GoZniBnDny_-20" style="edgeStyle=orthogonalEdgeStyle;rounded=0;orthogonalLoop=1;jettySize=auto;html=1;fontSize=14;" edge="1" parent="WIyWlLk6GJQsqaUBKTNV-1" source="zuwoEJKR0GoZniBnDny_-3" target="zuwoEJKR0GoZniBnDny_-15">
          <mxGeometry relative="1" as="geometry" />
        </mxCell>
        <mxCell id="zuwoEJKR0GoZniBnDny_-40" style="edgeStyle=orthogonalEdgeStyle;rounded=0;orthogonalLoop=1;jettySize=auto;html=1;exitX=0.5;exitY=1;exitDx=0;exitDy=0;entryX=0.5;entryY=0;entryDx=0;entryDy=0;fontSize=14;" edge="1" parent="WIyWlLk6GJQsqaUBKTNV-1" source="zuwoEJKR0GoZniBnDny_-3" target="zuwoEJKR0GoZniBnDny_-18">
          <mxGeometry relative="1" as="geometry" />
        </mxCell>
        <mxCell id="zuwoEJKR0GoZniBnDny_-3" value="预测未来一个月&lt;br&gt;资产会升级的人" style="rounded=0;whiteSpace=wrap;html=1;fontSize=14;" vertex="1" parent="WIyWlLk6GJQsqaUBKTNV-1">
          <mxGeometry x="197.25" y="533" width="180.5" height="41" as="geometry" />
        </mxCell>
        <mxCell id="zuwoEJKR0GoZniBnDny_-31" style="edgeStyle=orthogonalEdgeStyle;rounded=0;orthogonalLoop=1;jettySize=auto;html=1;exitX=0.5;exitY=1;exitDx=0;exitDy=0;fontSize=14;" edge="1" parent="WIyWlLk6GJQsqaUBKTNV-1" source="zuwoEJKR0GoZniBnDny_-4" target="zuwoEJKR0GoZniBnDny_-7">
          <mxGeometry relative="1" as="geometry" />
        </mxCell>
        <mxCell id="zuwoEJKR0GoZniBnDny_-4" value="前一个月用户（可考虑去除部分资产持续低的用户）" style="rounded=0;whiteSpace=wrap;html=1;fontSize=14;" vertex="1" parent="WIyWlLk6GJQsqaUBKTNV-1">
          <mxGeometry x="197.25" y="224" width="180.5" height="41" as="geometry" />
        </mxCell>
        <mxCell id="zuwoEJKR0GoZniBnDny_-36" style="edgeStyle=orthogonalEdgeStyle;rounded=0;orthogonalLoop=1;jettySize=auto;html=1;entryX=1;entryY=0.5;entryDx=0;entryDy=0;fontSize=14;exitX=0.5;exitY=1;exitDx=0;exitDy=0;" edge="1" parent="WIyWlLk6GJQsqaUBKTNV-1" source="zuwoEJKR0GoZniBnDny_-5" target="zuwoEJKR0GoZniBnDny_-2">
          <mxGeometry relative="1" as="geometry" />
        </mxCell>
        <mxCell id="zuwoEJKR0GoZniBnDny_-5" value="负样本：0" style="rounded=0;whiteSpace=wrap;html=1;fontSize=14;" vertex="1" parent="WIyWlLk6GJQsqaUBKTNV-1">
          <mxGeometry x="384" y="381" width="142" height="41" as="geometry" />
        </mxCell>
        <mxCell id="zuwoEJKR0GoZniBnDny_-35" style="edgeStyle=orthogonalEdgeStyle;rounded=0;orthogonalLoop=1;jettySize=auto;html=1;exitX=0.5;exitY=1;exitDx=0;exitDy=0;entryX=0;entryY=0.5;entryDx=0;entryDy=0;fontSize=14;" edge="1" parent="WIyWlLk6GJQsqaUBKTNV-1" source="zuwoEJKR0GoZniBnDny_-6" target="zuwoEJKR0GoZniBnDny_-2">
          <mxGeometry relative="1" as="geometry" />
        </mxCell>
        <mxCell id="zuwoEJKR0GoZniBnDny_-6" value="正样本：1" style="rounded=0;whiteSpace=wrap;html=1;fontSize=14;" vertex="1" parent="WIyWlLk6GJQsqaUBKTNV-1">
          <mxGeometry x="58" y="381" width="136" height="41" as="geometry" />
        </mxCell>
        <mxCell id="zuwoEJKR0GoZniBnDny_-33" style="edgeStyle=orthogonalEdgeStyle;rounded=0;orthogonalLoop=1;jettySize=auto;html=1;exitX=0;exitY=0.5;exitDx=0;exitDy=0;entryX=0.5;entryY=0;entryDx=0;entryDy=0;fontSize=14;" edge="1" parent="WIyWlLk6GJQsqaUBKTNV-1" source="zuwoEJKR0GoZniBnDny_-7" target="zuwoEJKR0GoZniBnDny_-6">
          <mxGeometry relative="1" as="geometry" />
        </mxCell>
        <mxCell id="zuwoEJKR0GoZniBnDny_-34" style="edgeStyle=orthogonalEdgeStyle;rounded=0;orthogonalLoop=1;jettySize=auto;html=1;fontSize=14;" edge="1" parent="WIyWlLk6GJQsqaUBKTNV-1" source="zuwoEJKR0GoZniBnDny_-7" target="zuwoEJKR0GoZniBnDny_-5">
          <mxGeometry relative="1" as="geometry" />
        </mxCell>
        <mxCell id="zuwoEJKR0GoZniBnDny_-7" value="判断未来一个月&lt;br&gt;资产是否升级" style="rhombus;whiteSpace=wrap;html=1;fontSize=14;" vertex="1" parent="WIyWlLk6GJQsqaUBKTNV-1">
          <mxGeometry x="197.25" y="292" width="181" height="70" as="geometry" />
        </mxCell>
        <mxCell id="zuwoEJKR0GoZniBnDny_-21" style="edgeStyle=orthogonalEdgeStyle;rounded=0;orthogonalLoop=1;jettySize=auto;html=1;fontSize=14;" edge="1" parent="WIyWlLk6GJQsqaUBKTNV-1" source="zuwoEJKR0GoZniBnDny_-9" target="zuwoEJKR0GoZniBnDny_-10">
          <mxGeometry relative="1" as="geometry" />
        </mxCell>
        <mxCell id="zuwoEJKR0GoZniBnDny_-9" value="STEP2：构造多分类训练样本" style="rounded=0;whiteSpace=wrap;html=1;fontSize=14;" vertex="1" parent="WIyWlLk6GJQsqaUBKTNV-1">
          <mxGeometry x="607" y="224" width="213.75" height="41" as="geometry" />
        </mxCell>
        <mxCell id="zuwoEJKR0GoZniBnDny_-22" style="edgeStyle=orthogonalEdgeStyle;rounded=0;orthogonalLoop=1;jettySize=auto;html=1;fontSize=14;" edge="1" parent="WIyWlLk6GJQsqaUBKTNV-1" source="zuwoEJKR0GoZniBnDny_-10" target="zuwoEJKR0GoZniBnDny_-11">
          <mxGeometry relative="1" as="geometry" />
        </mxCell>
        <mxCell id="zuwoEJKR0GoZniBnDny_-10" value="资产升级用户" style="rounded=0;whiteSpace=wrap;html=1;fontSize=14;" vertex="1" parent="WIyWlLk6GJQsqaUBKTNV-1">
          <mxGeometry x="623.63" y="294" width="180.5" height="41" as="geometry" />
        </mxCell>
        <mxCell id="zuwoEJKR0GoZniBnDny_-24" style="edgeStyle=orthogonalEdgeStyle;rounded=0;orthogonalLoop=1;jettySize=auto;html=1;exitX=0.5;exitY=1;exitDx=0;exitDy=0;entryX=0.5;entryY=0;entryDx=0;entryDy=0;fontSize=14;" edge="1" parent="WIyWlLk6GJQsqaUBKTNV-1" source="zuwoEJKR0GoZniBnDny_-11" target="zuwoEJKR0GoZniBnDny_-14">
          <mxGeometry relative="1" as="geometry" />
        </mxCell>
        <mxCell id="zuwoEJKR0GoZniBnDny_-11" value="按未来一个月日均资产分级" style="rounded=0;whiteSpace=wrap;html=1;fontSize=14;" vertex="1" parent="WIyWlLk6GJQsqaUBKTNV-1">
          <mxGeometry x="623.63" y="368" width="180.5" height="41" as="geometry" />
        </mxCell>
        <mxCell id="zuwoEJKR0GoZniBnDny_-26" style="edgeStyle=orthogonalEdgeStyle;rounded=0;orthogonalLoop=1;jettySize=auto;html=1;exitX=0.5;exitY=1;exitDx=0;exitDy=0;entryX=0.5;entryY=0;entryDx=0;entryDy=0;fontSize=14;" edge="1" parent="WIyWlLk6GJQsqaUBKTNV-1" source="zuwoEJKR0GoZniBnDny_-14" target="zuwoEJKR0GoZniBnDny_-15">
          <mxGeometry relative="1" as="geometry" />
        </mxCell>
        <mxCell id="zuwoEJKR0GoZniBnDny_-14" value="&lt;span style=&quot;font-size:10.5pt;mso-bidi-font-size:11.0pt;&lt;br/&gt;font-family:等线;mso-ascii-theme-font:minor-latin;mso-fareast-theme-font:minor-fareast;&lt;br/&gt;mso-hansi-theme-font:minor-latin;mso-bidi-font-family:&amp;quot;Times New Roman&amp;quot;;&lt;br/&gt;mso-bidi-theme-font:minor-bidi;mso-ansi-language:EN-US;mso-fareast-language:&lt;br/&gt;ZH-CN;mso-bidi-language:AR-SA&quot;&gt;小于&lt;span lang=&quot;EN-US&quot;&gt;30W&lt;/span&gt;，&lt;span lang=&quot;EN-US&quot;&gt;30W~50W&lt;/span&gt;，&lt;span lang=&quot;EN-US&quot;&gt;50W~300W&lt;/span&gt;，&lt;span lang=&quot;EN-US&quot;&gt;300~1000W&lt;/span&gt;，大于&lt;span lang=&quot;EN-US&quot;&gt;1000W&lt;/span&gt;&lt;/span&gt;" style="rounded=0;whiteSpace=wrap;html=1;fontSize=14;" vertex="1" parent="WIyWlLk6GJQsqaUBKTNV-1">
          <mxGeometry x="579.38" y="445" width="269" height="56" as="geometry" />
        </mxCell>
        <mxCell id="zuwoEJKR0GoZniBnDny_-27" style="edgeStyle=orthogonalEdgeStyle;rounded=0;orthogonalLoop=1;jettySize=auto;html=1;exitX=0.5;exitY=1;exitDx=0;exitDy=0;entryX=0.5;entryY=0;entryDx=0;entryDy=0;fontSize=14;" edge="1" parent="WIyWlLk6GJQsqaUBKTNV-1" source="zuwoEJKR0GoZniBnDny_-15" target="zuwoEJKR0GoZniBnDny_-17">
          <mxGeometry relative="1" as="geometry" />
        </mxCell>
        <mxCell id="zuwoEJKR0GoZniBnDny_-15" value="训练多分类器" style="rounded=0;whiteSpace=wrap;html=1;fontSize=14;" vertex="1" parent="WIyWlLk6GJQsqaUBKTNV-1">
          <mxGeometry x="623.63" y="533" width="180.5" height="41" as="geometry" />
        </mxCell>
        <mxCell id="zuwoEJKR0GoZniBnDny_-19" style="edgeStyle=orthogonalEdgeStyle;rounded=0;orthogonalLoop=1;jettySize=auto;html=1;fontSize=14;" edge="1" parent="WIyWlLk6GJQsqaUBKTNV-1" source="zuwoEJKR0GoZniBnDny_-17">
          <mxGeometry relative="1" as="geometry">
            <mxPoint x="400.60003662109375" y="631.5" as="targetPoint" />
          </mxGeometry>
        </mxCell>
        <mxCell id="zuwoEJKR0GoZniBnDny_-17" value="预测资产升级用户的资产等级" style="rounded=0;whiteSpace=wrap;html=1;fontSize=14;" vertex="1" parent="WIyWlLk6GJQsqaUBKTNV-1">
          <mxGeometry x="607" y="611" width="213.75" height="41" as="geometry" />
        </mxCell>
        <mxCell id="zuwoEJKR0GoZniBnDny_-41" style="edgeStyle=orthogonalEdgeStyle;rounded=0;orthogonalLoop=1;jettySize=auto;html=1;exitX=0.5;exitY=1;exitDx=0;exitDy=0;entryX=0.5;entryY=0;entryDx=0;entryDy=0;fontSize=14;" edge="1" parent="WIyWlLk6GJQsqaUBKTNV-1" source="zuwoEJKR0GoZniBnDny_-18" target="zuwoEJKR0GoZniBnDny_-28">
          <mxGeometry relative="1" as="geometry" />
        </mxCell>
        <mxCell id="zuwoEJKR0GoZniBnDny_-18" value="STEP3：去除同级资产&lt;br&gt;升级的用户" style="rounded=0;whiteSpace=wrap;html=1;fontSize=14;" vertex="1" parent="WIyWlLk6GJQsqaUBKTNV-1">
          <mxGeometry x="180.62" y="606" width="213.75" height="51" as="geometry" />
        </mxCell>
        <mxCell id="zuwoEJKR0GoZniBnDny_-46" style="edgeStyle=orthogonalEdgeStyle;rounded=0;orthogonalLoop=1;jettySize=auto;html=1;entryX=0;entryY=0.5;entryDx=0;entryDy=0;fontSize=14;" edge="1" parent="WIyWlLk6GJQsqaUBKTNV-1" source="zuwoEJKR0GoZniBnDny_-28" target="zuwoEJKR0GoZniBnDny_-45">
          <mxGeometry relative="1" as="geometry" />
        </mxCell>
        <mxCell id="zuwoEJKR0GoZniBnDny_-28" value="输出资产跨级增长用户" style="rounded=0;whiteSpace=wrap;html=1;fontSize=14;" vertex="1" parent="WIyWlLk6GJQsqaUBKTNV-1">
          <mxGeometry x="196.31" y="689" width="182.37" height="40" as="geometry" />
        </mxCell>
        <mxCell id="zuwoEJKR0GoZniBnDny_-37" value="是" style="text;html=1;align=center;verticalAlign=middle;resizable=0;points=[];autosize=1;strokeColor=none;fillColor=none;fontSize=14;" vertex="1" parent="WIyWlLk6GJQsqaUBKTNV-1">
          <mxGeometry x="138" y="301" width="32" height="29" as="geometry" />
        </mxCell>
        <mxCell id="zuwoEJKR0GoZniBnDny_-38" value="否" style="text;html=1;align=center;verticalAlign=middle;resizable=0;points=[];autosize=1;strokeColor=none;fillColor=none;fontSize=14;" vertex="1" parent="WIyWlLk6GJQsqaUBKTNV-1">
          <mxGeometry x="405" y="301" width="32" height="29" as="geometry" />
        </mxCell>
        <mxCell id="zuwoEJKR0GoZniBnDny_-43" style="edgeStyle=orthogonalEdgeStyle;rounded=0;orthogonalLoop=1;jettySize=auto;html=1;entryX=0.5;entryY=0;entryDx=0;entryDy=0;fontSize=14;" edge="1" parent="WIyWlLk6GJQsqaUBKTNV-1" source="zuwoEJKR0GoZniBnDny_-42" target="zuwoEJKR0GoZniBnDny_-9">
          <mxGeometry relative="1" as="geometry" />
        </mxCell>
        <mxCell id="zuwoEJKR0GoZniBnDny_-44" style="edgeStyle=orthogonalEdgeStyle;rounded=0;orthogonalLoop=1;jettySize=auto;html=1;fontSize=14;" edge="1" parent="WIyWlLk6GJQsqaUBKTNV-1" source="zuwoEJKR0GoZniBnDny_-42">
          <mxGeometry relative="1" as="geometry">
            <mxPoint x="393.4000244140625" y="169.5" as="targetPoint" />
          </mxGeometry>
        </mxCell>
        <mxCell id="zuwoEJKR0GoZniBnDny_-42" value="开始" style="rounded=1;whiteSpace=wrap;html=1;fontSize=14;" vertex="1" parent="WIyWlLk6GJQsqaUBKTNV-1">
          <mxGeometry x="662.38" y="152.5" width="103" height="34" as="geometry" />
        </mxCell>
        <mxCell id="zuwoEJKR0GoZniBnDny_-45" value="结束" style="rounded=1;whiteSpace=wrap;html=1;fontSize=14;" vertex="1" parent="WIyWlLk6GJQsqaUBKTNV-1">
          <mxGeometry x="650" y="692" width="103" height="34" as="geometry" />
        </mxCell>
      </root>
    </mxGraphModel>
  </diagram>
</mxfile>
